<?xml version="1.0" encoding="utf-8"?>
<!-- Generator: Adobe Illustrator 27.5.0, SVG Export Plug-In . SVG Version: 6.00 Build 0)  -->
<svg version="1.1" xmlns="http://www.w3.org/2000/svg" xmlns:xlink="http://www.w3.org/1999/xlink" x="0px" y="0px"
	 viewBox="0 0 500 500" style="enable-background:new 0 0 500 500;" xml:space="preserve">
<g id="Objects">
	<g id="XMLID_14298_">
		<g id="XMLID_14269_" style="opacity:0.2;">
			<path style="fill:#D9EEFF;" d="M98.04,388.246c87.463,45.691,229.269,45.693,316.73,0.002
				c87.464-45.692,87.464-119.772,0-165.464c-87.463-45.692-229.268-45.692-316.731-0.001
				C10.576,268.474,10.576,342.556,98.04,388.246z"/>
		</g>
		<g id="XMLID_618_">
			<g id="XMLID_613_">
				<path style="fill:#ABD5FD;" d="M450.12,252.926c0.478-3.98,2.629-7.546,8.123-13.105c5.495-5.559,9.354-9.636,4.061-11.825
					c-5.205-2.153-13.349,7.595-14.512,16.065C446.631,252.532,450.12,252.926,450.12,252.926z"/>
			</g>
			<g id="XMLID_622_">
				<path style="fill:#FFFFFF;" d="M448.097,251.3c-0.027,0-0.055-0.002-0.082-0.007c-0.272-0.044-0.457-0.301-0.412-0.574
					c2.377-14.536,10.189-19.531,13.438-21.003c0.249-0.114,0.548-0.002,0.661,0.249c0.114,0.251,0.003,0.548-0.249,0.662
					c-3.102,1.406-10.564,6.195-12.863,20.253C448.549,251.126,448.337,251.3,448.097,251.3z"/>
			</g>
		</g>
		<g id="XMLID_627_">
			<g id="XMLID_609_">
				<g id="XMLID_14639_">
					<path style="fill:#C1E4FF;" d="M45.188,324.907c-1.663-2.663-6.753-5.59-13.45-7.036c-6.697-1.445-13.422-3.244-11.883-7.129
						c1.661-4.192,7.884-4.396,13.974-1.902c6.654,2.726,11.574,9.479,11.669,13.723L45.188,324.907z"/>
				</g>
				<g id="XMLID_607_">
					<path style="fill:#FFFFFF;" d="M45.712,323.694c-0.186,0-0.364-0.104-0.451-0.282c-5.317-11.002-17.641-12.774-21.528-12.176
						c-0.27,0.044-0.528-0.145-0.57-0.418c-0.042-0.272,0.145-0.528,0.418-0.57c4.079-0.633,17.017,1.218,22.581,12.729
						c0.12,0.249,0.016,0.548-0.232,0.668C45.859,323.679,45.785,323.694,45.712,323.694z"/>
				</g>
			</g>
			<g id="XMLID_14602_">
				<g id="XMLID_14601_">
					<path style="fill:#D9EEFF;" d="M45.188,324.907c0,0-3.201-12.677-11.306-19.491c-2.408-2.025-4.976-4.557-6.771-6.307
						c-3.853-3.755-2.246-7.84,3.093-7.765c7.931,0.111,13.735,6.79,16.248,15.53C48.963,315.615,45.188,324.907,45.188,324.907z"/>
				</g>
				<g id="XMLID_14603_">
					<path style="fill:#FFFFFF;" d="M46.452,319.987c-0.255,0-0.473-0.194-0.498-0.454c-1.494-16.12-13.792-24.225-17.138-25.081
						c-0.268-0.068-0.429-0.341-0.36-0.608c0.068-0.268,0.341-0.431,0.608-0.36c4.064,1.04,16.356,9.451,17.886,25.958
						c0.025,0.274-0.177,0.519-0.452,0.544C46.482,319.986,46.467,319.987,46.452,319.987z"/>
				</g>
			</g>
		</g>
		<g id="XMLID_14551_">
			<g id="XMLID_608_">
				<polygon style="fill:#ABD5FD;" points="73.622,341.324 45.188,324.907 45.187,263.932 73.622,280.349 				"/>
			</g>
			<g id="XMLID_14275_">
				<polygon style="fill:#C1E4FF;" points="73.622,280.349 114.242,256.897 114.243,317.872 73.622,341.324 				"/>
			</g>
			<g id="XMLID_14461_">
				<polygon style="fill:#D9EEFF;" points="114.242,256.897 73.622,280.349 45.187,263.932 85.808,240.48 				"/>
			</g>
			<g id="XMLID_14543_">
				<g id="XMLID_14535_">
					<polygon style="fill:#ABD5FD;" points="77.685,282.693 110.181,263.932 110.928,264.363 110.927,286.949 78.431,305.71 
						77.684,305.278 					"/>
				</g>
				<g id="XMLID_14541_">
					<polygon style="fill:#D9EEFF;" points="78.432,283.125 110.928,264.363 110.927,286.949 78.431,305.71 					"/>
				</g>
				<g id="XMLID_14542_">
					<path style="fill:#ABD5FD;" d="M91.169,279.599l5.526-3.191c0.718-0.414,1.299-0.225,1.299,0.423
						c0,0.648-0.581,1.509-1.299,1.923l-5.526,3.19c-0.718,0.414-1.299,0.226-1.299-0.422
						C89.87,280.873,90.452,280.013,91.169,279.599z"/>
				</g>
			</g>
			<g id="XMLID_14545_">
				<g id="XMLID_14548_">
					<polygon style="fill:#ABD5FD;" points="76.937,311.272 109.434,292.51 109.432,315.096 110.18,315.527 77.683,334.289 
						76.936,333.856 					"/>
				</g>
				<g id="XMLID_14547_">
					<polygon style="fill:#D9EEFF;" points="77.684,311.704 110.181,292.941 110.18,315.527 77.683,334.289 					"/>
				</g>
				<g id="XMLID_14546_">
					<path style="fill:#ABD5FD;" d="M90.422,308.177l5.526-3.19c0.718-0.414,1.299-0.225,1.299,0.423
						c0,0.647-0.582,1.508-1.299,1.923l-5.527,3.19c-0.717,0.414-1.299,0.225-1.298-0.423
						C89.123,309.452,89.705,308.591,90.422,308.177z"/>
				</g>
			</g>
		</g>
		<g id="XMLID_14329_">
			<g id="XMLID_14332_">
				<g id="XMLID_14377_">
					<polygon style="fill:#ABD5FD;" points="73.621,276.831 45.186,260.414 45.186,199.439 73.621,215.855 					"/>
				</g>
				<g id="XMLID_14369_">
					<polygon style="fill:#C1E4FF;" points="73.621,215.855 114.241,192.403 114.242,253.379 73.621,276.831 					"/>
				</g>
				<g id="XMLID_14367_">
					<polygon style="fill:#D9EEFF;" points="114.241,192.403 73.621,215.855 45.186,199.439 85.807,175.986 					"/>
				</g>
				<g id="XMLID_14337_">
					<g id="XMLID_14366_">
						<polygon style="fill:#ABD5FD;" points="77.683,218.2 110.18,199.438 110.927,199.87 110.926,222.456 78.43,241.217 
							77.682,240.785 						"/>
					</g>
					<g id="XMLID_14338_">
						<path style="fill:#ABD5FD;" d="M91.168,215.105l5.526-3.19c0.717-0.415,1.299-0.225,1.299,0.422
							c0,0.648-0.582,1.509-1.299,1.923l-5.527,3.19c-0.717,0.414-1.299,0.225-1.299-0.422
							C89.869,216.38,90.451,215.52,91.168,215.105z"/>
					</g>
				</g>
				<g id="XMLID_14333_">
					<g id="XMLID_14336_">
						<polygon style="fill:#ABD5FD;" points="76.935,246.778 109.432,228.017 109.431,250.602 110.178,251.034 77.682,269.795 
							76.935,269.363 						"/>
					</g>
					<g id="XMLID_14335_">
						<polygon style="fill:#D9EEFF;" points="77.683,247.21 110.179,228.449 110.178,251.034 77.682,269.795 						"/>
					</g>
					<g id="XMLID_14334_">
						<path style="fill:#ABD5FD;" d="M90.42,243.684l5.526-3.19c0.717-0.415,1.299-0.225,1.299,0.422
							c0,0.648-0.581,1.509-1.299,1.923l-5.526,3.19c-0.718,0.414-1.299,0.225-1.299-0.422
							C89.122,244.958,89.703,244.098,90.42,243.684z"/>
					</g>
				</g>
			</g>
			<g id="XMLID_14328_">
				<g id="XMLID_14544_">
					<polygon style="fill:#ABD5FD;" points="77.683,218.199 110.179,199.438 110.178,222.023 77.682,240.784 					"/>
				</g>
				<g id="XMLID_14557_">
					<polygon style="fill:#ABD5FD;" points="126.428,210.596 108.64,200.329 108.639,220.226 126.427,230.493 					"/>
				</g>
				<g id="XMLID_14327_">
					<g id="XMLID_14556_">
						<polygon style="fill:#C1E4FF;" points="89.869,243.997 89.869,215.854 96.842,211.815 97.993,213.509 118.303,201.783 
							118.304,227.58 						"/>
					</g>
					<g id="XMLID_606_">
						<polygon style="fill:#D9EEFF;" points="89.869,243.997 91.899,219.372 120.334,202.956 118.304,227.58 						"/>
					</g>
				</g>
				<g id="XMLID_14555_">
					<polygon style="fill:#C1E4FF;" points="93.931,229.358 78.428,220.407 78.427,240.305 93.93,249.255 					"/>
				</g>
				<g id="XMLID_14550_">
					<polygon style="fill:#D9EEFF;" points="93.931,227.58 126.427,208.818 126.426,231.404 93.93,250.165 					"/>
				</g>
				<g id="XMLID_14553_">
					<path style="fill:#ABD5FD;" d="M106.668,224.054l5.526-3.191c0.717-0.414,1.299-0.225,1.299,0.423
						c0,0.648-0.582,1.508-1.299,1.922l-5.526,3.191c-0.718,0.414-1.299,0.225-1.299-0.423
						C105.37,225.329,105.951,224.468,106.668,224.054z"/>
				</g>
				<g id="XMLID_14549_">
					<polygon style="fill:#ABD5FD;" points="93.931,227.58 92.848,226.956 92.848,249.54 93.932,250.165 					"/>
				</g>
				<g id="XMLID_14554_">
					<polygon style="fill:#C1E4FF;" points="92.848,226.956 125.345,208.194 126.427,208.818 93.931,227.58 					"/>
				</g>
			</g>
		</g>
		<g id="XMLID_14331_">
			<g id="XMLID_14559_">
				<polygon style="fill:#ABD5FD;" points="409.499,276.378 381.064,259.962 381.064,198.985 409.499,215.402 				"/>
			</g>
			<g id="XMLID_14558_">
				<polygon style="fill:#C1E4FF;" points="409.499,215.402 450.119,191.95 450.12,252.926 409.499,276.378 				"/>
			</g>
			<g id="XMLID_14405_">
				<polygon style="fill:#D9EEFF;" points="450.119,191.95 409.499,215.402 381.064,198.985 421.685,175.534 				"/>
			</g>
			<g id="XMLID_14398_">
				<g id="XMLID_14401_">
					<polygon style="fill:#ABD5FD;" points="413.561,217.747 446.058,198.985 446.805,199.417 446.804,222.003 414.308,240.764 
						413.56,240.332 					"/>
				</g>
				<g id="XMLID_14400_">
					<polygon style="fill:#D9EEFF;" points="414.309,218.179 446.805,199.417 446.804,222.003 414.308,240.764 					"/>
				</g>
				<g id="XMLID_14399_">
					<path style="fill:#ABD5FD;" d="M427.047,214.652l5.525-3.19c0.718-0.415,1.299-0.225,1.299,0.422
						c0,0.648-0.581,1.508-1.299,1.923l-5.526,3.191c-0.718,0.414-1.299,0.225-1.299-0.422
						C425.747,215.927,426.329,215.066,427.047,214.652z"/>
				</g>
			</g>
			<g id="XMLID_14339_">
				<g id="XMLID_14397_">
					<polygon style="fill:#ABD5FD;" points="412.814,246.326 445.31,227.564 445.31,250.149 446.057,250.581 413.56,269.343 
						412.813,268.91 					"/>
				</g>
				<g id="XMLID_14392_">
					<polygon style="fill:#D9EEFF;" points="413.561,246.758 446.058,227.996 446.057,250.581 413.56,269.343 					"/>
				</g>
				<g id="XMLID_14378_">
					<path style="fill:#ABD5FD;" d="M426.299,243.231l5.526-3.191c0.717-0.414,1.299-0.225,1.299,0.423
						c0,0.647-0.582,1.508-1.299,1.923l-5.527,3.191c-0.718,0.414-1.299,0.225-1.299-0.422
						C425,244.506,425.581,243.645,426.299,243.231z"/>
				</g>
			</g>
		</g>
		<g id="XMLID_14453_">
			<g id="XMLID_14442_">
				<g id="XMLID_14441_">
					<path style="fill:#1BBC9D;" d="M138.956,340.114c0,0,0.118-15.86-9.882-27.751c-8.858-10.532-13.566-17.213-10.769-20.289
						c2.796-3.076,8.781-3.819,16.875,4.691c8.094,8.51,8.72,32.12,7.603,37.462L138.956,340.114z"/>
				</g>
				<g id="XMLID_14444_">
					<path style="fill:#FFFFFF;" d="M140.68,323.063c-0.231,0-0.438-0.161-0.488-0.396c-3.499-16.371-12.486-25.422-17.531-29.359
						c-0.218-0.17-0.256-0.484-0.086-0.702c0.169-0.217,0.483-0.257,0.702-0.087c5.152,4.022,14.328,13.259,17.893,29.939
						c0.058,0.27-0.114,0.536-0.384,0.594C140.75,323.059,140.715,323.063,140.68,323.063z"/>
				</g>
			</g>
			<g id="XMLID_14438_">
				<g id="XMLID_14437_">
					<path style="fill:#27DEBF;" d="M138.615,346.015l-4.063,2.346c0,0-1.039-3.648-5.484-4.691
						c-4.445-1.043-9.07-0.834-12.184-4.691c-3.113-3.857,0.677-8.054,0-10.896c-0.677-2.843-1.129-3.66-6.705-6.498
						c-5.575-2.838-7.78-7.552-3.583-10.747c4.196-3.196,11.018-0.849,15.123,1.954c3.664,2.503,7.143,3.162,11.226,3.664
						c4.083,0.501,10.751,2.786,9.731,12.283C141.658,338.235,138.615,346.015,138.615,346.015z"/>
				</g>
				<g id="XMLID_14439_">
					<path style="fill:#FFFFFF;" d="M139.074,345.244c-0.252,0-0.47-0.19-0.497-0.447c-2.227-21.059-27.595-31.05-27.851-31.148
						c-0.258-0.1-0.387-0.389-0.288-0.646c0.099-0.257,0.387-0.387,0.646-0.287c0.262,0.101,26.195,10.306,28.487,31.977
						c0.029,0.274-0.17,0.521-0.444,0.55C139.109,345.243,139.091,345.244,139.074,345.244z"/>
				</g>
				<g id="XMLID_14440_">
					<path style="fill:#FFFFFF;" d="M122.969,333.52c-0.212,0-0.408-0.135-0.476-0.347c-0.084-0.264,0.061-0.545,0.323-0.629
						c0.367-0.117,9.022-2.85,12.677,0.086c0.215,0.173,0.25,0.487,0.077,0.703c-0.172,0.216-0.487,0.25-0.703,0.076
						c-3.241-2.603-11.661,0.06-11.745,0.086C123.071,333.512,123.019,333.52,122.969,333.52z"/>
				</g>
			</g>
		</g>
		<g id="XMLID_626_">
			<g id="XMLID_14435_">
				<g id="XMLID_14434_">
					<path style="fill:#1BBC9D;" d="M387.797,332.166c0.115-0.343,4.404-22.43,0-38.09c-4.038-14.358-9.219-19.657-16.656-20.825
						c-7.438-1.167-10.666,4.188-6.716,11.444c3.95,7.256,13.454,16.897,15.79,33.115c0.962,6.676,1.76,12.478,1.76,12.478
						L387.797,332.166z"/>
				</g>
				<g id="XMLID_14436_">
					<path style="fill:#FFFFFF;" d="M385.295,319.487c-0.009,0-0.018,0-0.028-0.001c-0.276-0.016-0.486-0.252-0.471-0.527
						c1.024-17.877-4.841-33.842-15.308-41.665c-0.221-0.165-0.266-0.479-0.101-0.7c0.165-0.22,0.479-0.266,0.7-0.101
						c10.731,8.021,16.75,24.314,15.706,42.522C385.779,319.282,385.559,319.487,385.295,319.487z"/>
				</g>
			</g>
			<g id="XMLID_14431_">
				<g id="XMLID_14356_">
					<path style="fill:#27DEBF;" d="M399.313,343.67c-0.574-4.105,1.79-10.272,7.397-11.727c5.605-1.453,8.112-4.683,6.087-8.204
						c-2.025-3.521-1.547-6.748,3.545-8.213c5.092-1.464,9.55-4.021,6.615-9.38c-2.127-3.887-2.599-6.404,2.621-14.071
						c4.328-6.357,0.79-10.087-4.633-9.381c-5.422,0.706-8.766,7.151-12.15,8.239c-3.385,1.088-4.177-4.686-8.647-2.107
						c-4.47,2.581-4.194,9.192-4.336,13.801c-0.141,4.609-0.442,5.654-4.484,5.088c-4.042-0.566-7.985,0.104-7.908,9.873
						c0.065,8.385,4.542,18.763,4.542,18.763L399.313,343.67z"/>
				</g>
				<g id="XMLID_14357_">
					<path style="fill:#FFFFFF;" d="M392.223,337.418c-0.019,0-0.038-0.001-0.057-0.003c-0.274-0.031-0.472-0.278-0.441-0.553
						c2.816-25.195,24.439-46.44,30.075-50.751c0.219-0.168,0.532-0.126,0.701,0.094c0.167,0.22,0.126,0.533-0.094,0.701
						c-5.564,4.255-26.912,25.224-29.688,50.067C392.69,337.229,392.474,337.418,392.223,337.418z"/>
				</g>
				<g id="XMLID_14432_">
					<path style="fill:#FFFFFF;" d="M402.081,310.491c-0.203,0-0.394-0.124-0.469-0.325c-0.096-0.259,0.035-0.547,0.294-0.643
						c8.067-3.002,17.205-1.587,17.59-1.525c0.272,0.044,0.458,0.301,0.414,0.573c-0.043,0.272-0.308,0.453-0.572,0.415
						c-0.091-0.017-9.269-1.435-17.082,1.475C402.198,310.481,402.139,310.491,402.081,310.491z"/>
				</g>
				<g id="XMLID_14433_">
					<path style="fill:#FFFFFF;" d="M394.901,325.626c-0.139,0-0.276-0.057-0.375-0.169c-5.38-6.092-6.541-13.362-6.588-13.669
						c-0.042-0.272,0.146-0.527,0.418-0.569c0.278-0.037,0.528,0.145,0.57,0.418c0.011,0.072,1.171,7.294,6.35,13.158
						c0.183,0.207,0.163,0.523-0.044,0.706C395.138,325.585,395.02,325.626,394.901,325.626z"/>
				</g>
			</g>
		</g>
		<g id="XMLID_14341_">
			<path style="fill:#D9EEFF;" d="M297.035,409.336c-28.435-16.417-54.815-34.265-66.858-55.209l36.559-21.108L297.035,409.336z"/>
		</g>
		<g id="XMLID_14534_">
			<g id="XMLID_14532_">
				<polygon style="fill:#4C9FFF;" points="138.615,191.23 138.615,346.015 297.035,254.552 297.034,113.838 179.236,181.85 
					175.174,170.124 				"/>
			</g>
			<g id="XMLID_14533_">
				<polygon style="fill:#ABD5FD;" points="138.615,346.015 146.738,205.301 305.157,113.838 297.035,254.552 				"/>
			</g>
			<g id="XMLID_14531_">
				<polygon style="fill:#4C9FFF;" points="138.615,346.015 150.8,207.646 309.22,116.183 297.035,254.552 				"/>
			</g>
		</g>
		<g id="XMLID_14536_">
			<g id="XMLID_14539_">
				<polygon style="fill:#2460DA;" points="162.988,205.301 162.988,360.086 321.408,268.623 321.407,127.91 203.609,195.921 
					199.547,184.194 				"/>
			</g>
			<g id="XMLID_14538_">
				<polygon style="fill:#C1E4FF;" points="162.988,360.086 171.111,219.373 329.53,127.909 321.408,268.623 				"/>
			</g>
			<g id="XMLID_14537_">
				<polygon style="fill:#2460DA;" points="162.988,360.086 175.173,221.718 333.593,130.254 321.408,268.623 				"/>
			</g>
		</g>
		<g id="XMLID_625_">
			<g id="XMLID_14527_">
				<polygon style="fill:#FFC000;" points="191.421,221.718 191.421,376.503 349.841,285.039 349.84,144.326 232.041,212.337 
					227.979,200.611 				"/>
			</g>
			<g id="XMLID_584_">
				<g id="XMLID_527_">
					<g>
						<path style="fill:#FFFFFF;" d="M237.061,267.482c-0.399,0-0.459-0.461-0.459-0.736V134.723c0-0.928,0.679-2.103,1.482-2.567
							L352.42,66.145c0.192-0.111,0.373-0.169,0.523-0.169c0.399,0,0.459,0.461,0.459,0.736v132.023
							c0,0.928-0.679,2.104-1.482,2.567l-114.335,66.012C237.392,267.424,237.211,267.482,237.061,267.482z"/>
					</g>
					<g>
						<path style="fill:#C1E4FF;" d="M352.877,66.486c0.013,0.048,0.025,0.122,0.025,0.225v132.023c0,0.745-0.588,1.762-1.232,2.134
							L237.334,266.88c-0.092,0.054-0.162,0.079-0.207,0.092c-0.013-0.048-0.025-0.122-0.025-0.226V134.723
							c0-0.745,0.587-1.762,1.232-2.134L352.67,66.578C352.763,66.524,352.832,66.498,352.877,66.486 M352.943,65.475
							c-0.233,0-0.495,0.076-0.773,0.236l-114.335,66.011c-0.957,0.552-1.732,1.895-1.732,3v132.023c0,0.783,0.39,1.236,0.959,1.236
							c0.233,0,0.496-0.076,0.773-0.236l114.335-66.011c0.957-0.552,1.732-1.895,1.732-3V66.711
							C353.902,65.928,353.512,65.475,352.943,65.475L352.943,65.475z"/>
					</g>
				</g>
				<g id="XMLID_583_">
					<g id="XMLID_517_">
						<polygon style="fill:#D9EEFF;" points="248.289,139.758 288.909,116.306 288.909,163.21 248.289,186.663 						"/>
					</g>
					<g id="XMLID_544_">
						<g id="XMLID_529_">
							<path style="fill:#FFFFFF;" d="M282.816,128.032v14.071l-1.272,0.711c0,0,0-1.93,0-4.311c0-2.381-1.938-3.191-4.33-1.811
								l-17.23,9.947c-2.392,1.38-4.33,4.43-4.33,6.811v4.311l-1.273,0.759v-14.071L282.816,128.032z"/>
						</g>
						<g id="XMLID_586_">
							<path style="fill:#FFFFFF;" d="M274.981,163.895c-2.084,1.203-3.773-0.06-3.773-2.822v-22.57l-5.218,2.84v22.742
								c0,2.762-1.688,5.976-3.772,7.179l-3.774,2.178v1.494l20.311-11.726v-1.494C278.755,161.717,277.065,162.692,274.981,163.895
								z"/>
						</g>
					</g>
				</g>
				<g id="XMLID_14283_">
					<g id="XMLID_14297_">
						<path style="fill:#ABD5FD;" d="M297.033,113.961c0.001,1.295,1.164,1.674,2.599,0.846l39.486-22.797
							c1.434-0.829,2.598-2.55,2.598-3.846c0-1.295-1.163-1.673-2.598-0.845l-39.486,22.797
							C298.196,110.944,297.033,112.666,297.033,113.961z"/>
					</g>
					<g id="XMLID_14296_">
						<path style="fill:#ABD5FD;" d="M297.033,128.032c0.001,1.295,1.164,1.674,2.599,0.846l39.486-22.797
							c1.434-0.829,2.598-2.55,2.598-3.846c0-1.295-1.163-1.673-2.598-0.845l-39.486,22.797
							C298.196,125.016,297.033,126.737,297.033,128.032z"/>
					</g>
					<g id="XMLID_14295_">
						<path style="fill:#ABD5FD;" d="M297.033,142.104c0.001,1.295,1.164,1.674,2.599,0.846l39.486-22.797
							c1.434-0.829,2.598-2.55,2.598-3.846c0-1.295-1.163-1.673-2.598-0.845l-39.486,22.797
							C298.196,139.087,297.033,140.809,297.033,142.104z"/>
					</g>
					<g id="XMLID_14294_">
						<path style="fill:#ABD5FD;" d="M297.033,156.175c0.001,1.295,1.164,1.674,2.599,0.846l39.486-22.797
							c1.434-0.829,2.598-2.55,2.598-3.846c0-1.295-1.163-1.674-2.598-0.845l-39.486,22.797
							C298.196,153.158,297.033,154.88,297.033,156.175z"/>
					</g>
				</g>
				<g id="XMLID_14293_">
					<g id="XMLID_14320_">
						<path style="fill:#ABD5FD;" d="M248.289,198.394c0,1.295,1.163,1.674,2.598,0.845l88.231-50.944
							c1.434-0.829,2.598-2.55,2.598-3.846c0-1.295-1.163-1.674-2.598-0.845l-88.232,50.944
							C249.452,195.376,248.289,197.098,248.289,198.394z"/>
					</g>
					<g id="XMLID_14318_">
						<path style="fill:#ABD5FD;" d="M248.289,212.465c0,1.295,1.163,1.674,2.598,0.845l88.231-50.944
							c1.434-0.829,2.598-2.55,2.598-3.846c0-1.295-1.163-1.674-2.598-0.845l-88.232,50.944
							C249.452,209.448,248.289,211.169,248.289,212.465z"/>
					</g>
					<g id="XMLID_14317_">
						<path style="fill:#ABD5FD;" d="M248.289,226.536c0,1.295,1.163,1.674,2.598,0.845l88.231-50.944
							c1.434-0.829,2.598-2.55,2.598-3.846c0-1.295-1.163-1.674-2.598-0.845l-88.232,50.944
							C249.452,223.519,248.289,225.241,248.289,226.536z"/>
					</g>
				</g>
			</g>
			<g id="XMLID_624_">
				<g id="XMLID_14540_">
					<polygon style="fill:#FFDB4C;" points="191.422,376.503 219.855,252.206 378.274,160.743 349.841,285.039 					"/>
				</g>
				<g id="XMLID_14340_">
					<polygon style="fill:#FFC000;" points="230.177,261.941 230.177,354.127 266.735,333.02 266.736,240.835 					"/>
				</g>
			</g>
		</g>
		<g id="XMLID_623_">
			<g id="XMLID_10410_">
				<g>
					<path style="fill:#FFFFFF;" d="M297.068,408.739c-3.107-2.314-33.085-25.231-48.325-57.961
						c-16.222-34.84-16.208-75.476-16.202-90.772v-0.476l108.675-62.743c-0.006,15.436,0.016,56.129,16.296,91.092
						c14.886,31.97,43.718,54.624,48.29,58.083L297.068,408.739z"/>
				</g>
				<g>
					<path style="fill:#C1E4FF;" d="M340.717,197.653c0.001,16.078,0.313,56.011,16.343,90.438
						c14.386,30.895,41.747,53.116,47.844,57.814l-107.799,62.237c-4.214-3.176-33.067-25.703-47.907-57.575
						c-16.175-34.738-16.161-75.293-16.156-90.561v-0.187L340.717,197.653 M341.717,195.921l-109.675,63.32
						c0,14.386-0.304,56.198,16.249,91.748c16.248,34.895,48.745,58.347,48.745,58.347l109.676-63.32
						c0,0-32.497-23.453-48.745-58.348C341.413,252.119,341.717,210.307,341.717,195.921L341.717,195.921z"/>
				</g>
			</g>
			<g id="XMLID_10886_">
				<g id="XMLID_545_">
					<g id="XMLID_585_">
						<path style="fill:#ABD5FD;" d="M329.314,217.152l-34.686,20.026c-1.435,0.829-2.567,2.527-2.52,3.794
							c0.049,1.268,1.26,1.623,2.695,0.795l34.685-20.026c1.435-0.828,2.55-2.527,2.502-3.794
							C331.943,216.68,330.749,216.324,329.314,217.152z"/>
					</g>
					<g id="XMLID_589_">
						<path style="fill:#ABD5FD;" d="M330.053,230.797l-34.685,20.026c-1.436,0.828-2.521,2.501-2.415,3.735
							c0.107,1.233,1.366,1.561,2.801,0.732l34.687-20.026c1.435-0.828,2.501-2.499,2.395-3.732
							C332.728,230.299,331.487,229.969,330.053,230.797z"/>
					</g>
					<g id="XMLID_591_">
						<path style="fill:#ABD5FD;" d="M331.438,244.069l-34.686,20.026c-1.436,0.828-2.472,2.472-2.301,3.668
							c0.171,1.197,1.483,1.495,2.917,0.666l34.687-20.026c1.434-0.829,2.45-2.469,2.279-3.666
							C334.164,243.54,332.873,243.24,331.438,244.069z"/>
					</g>
					<g id="XMLID_592_">
						<path style="fill:#ABD5FD;" d="M333.518,256.94l-34.686,20.025c-1.436,0.829-2.418,2.442-2.183,3.602
							c0.235,1.16,1.601,1.425,3.036,0.597l34.686-20.026c1.435-0.828,2.396-2.436,2.16-3.596
							C336.296,256.382,334.952,256.111,333.518,256.94z"/>
					</g>
					<g id="XMLID_594_">
						<path style="fill:#ABD5FD;" d="M336.338,269.382l-34.686,20.026c-1.435,0.828-2.361,2.409-2.054,3.526
							c0.307,1.118,1.731,1.351,3.166,0.521l34.686-20.026c1.435-0.828,2.337-2.402,2.03-3.52
							C339.173,268.791,337.773,268.554,336.338,269.382z"/>
					</g>
					<g id="XMLID_595_">
						<path style="fill:#ABD5FD;" d="M339.948,281.37l-84.538,48.808c-1.435,0.829-2.299,2.374-1.91,3.445
							c0.388,1.071,1.878,1.264,3.313,0.436l84.538-48.808c1.435-0.829,2.272-2.365,1.884-3.436
							C342.846,280.743,341.383,280.541,339.948,281.37z"/>
					</g>
					<g id="XMLID_596_">
						<path style="fill:#ABD5FD;" d="M344.453,292.819l-84.538,48.809c-1.435,0.828-2.222,2.331-1.747,3.353
							c0.474,1.022,2.029,1.175,3.464,0.347l84.538-48.809c1.436-0.828,2.206-2.324,1.732-3.346
							C347.428,292.151,345.888,291.991,344.453,292.819z"/>
					</g>
					<g id="XMLID_597_">
						<path style="fill:#ABD5FD;" d="M349.967,303.733l-84.538,48.808c-1.435,0.828-2.149,2.291-1.581,3.258
							c0.568,0.967,2.207,1.071,3.643,0.243l84.537-48.809c1.436-0.828,2.123-2.275,1.555-3.243
							C353.013,303.023,351.401,302.904,349.967,303.733z"/>
					</g>
					<g id="XMLID_598_">
						<path style="fill:#ABD5FD;" d="M356.475,314.046l-84.538,48.808c-1.434,0.828-2.078,2.252-1.424,3.17
							c0.655,0.917,2.359,0.98,3.794,0.152l84.538-48.809c1.435-0.828,2.057-2.235,1.402-3.152
							C359.592,313.298,357.909,313.217,356.475,314.046z"/>
					</g>
					<g id="XMLID_599_">
						<path style="fill:#ABD5FD;" d="M363.852,323.855l-84.538,48.809c-1.435,0.828-2.016,2.217-1.285,3.09
							c0.73,0.873,2.494,0.902,3.93,0.073l84.538-48.808c1.435-0.828,1.997-2.2,1.267-3.073
							C367.032,323.072,365.286,323.027,363.852,323.855z"/>
					</g>
					<g id="XMLID_600_">
						<path style="fill:#ABD5FD;" d="M372.023,333.203l-84.537,48.809c-1.436,0.828-1.959,2.184-1.158,3.017
							c0.8,0.833,2.619,0.829,4.055,0.001l84.538-48.808c1.435-0.829,1.941-2.168,1.142-3.001
							C375.262,332.388,373.459,332.375,372.023,333.203z"/>
					</g>
					<g id="XMLID_601_">
						<path style="fill:#ABD5FD;" d="M380.961,342.127l-84.538,48.808c-1.435,0.828-1.902,2.152-1.033,2.946
							c0.868,0.794,2.744,0.757,4.179-0.072l84.538-48.808c1.435-0.828,1.886-2.135,1.017-2.929
							C384.255,341.278,382.395,341.298,380.961,342.127z"/>
					</g>
				</g>
			</g>
			<g id="XMLID_14552_">
				<g id="XMLID_604_">
					<path style="fill:#D9EEFF;" d="M282.06,244.435l-39.882,23.026c0.444,14.444,2.091,35.293,8.136,56.278l39.882-23.026
						C284.151,279.728,282.504,258.88,282.06,244.435z"/>
				</g>
				<g id="XMLID_14354_">
					<path style="fill:#ABD5FD;" d="M258.444,264.261c0-2.235-0.728-3.956-1.949-5.065l-14.317,8.266
						c0.117,3.816,0.323,8.09,0.667,12.685c1.57,0.258,3.424-0.025,5.417-0.954C253.886,276.568,258.444,269.884,258.444,264.261z"
						/>
				</g>
				<g id="XMLID_14355_">
					<path style="fill:#ABD5FD;" d="M286.814,286.915c0,0-0.001,0-0.001-0.001c-2.66-3.355-8.07-13.702-10.382-18.211
						c-0.41-0.801-1.581-0.689-1.848,0.169c-3.994,12.819-4.327,26.252-4.327,26.252c-3.206-2.537-5.512-5.06-8.466-9.423
						c-0.429-0.633-1.396-0.464-1.588,0.275c-4.361,16.793-2.174,33.309-2.174,33.309l0,0l32.167-18.572
						C288.863,296.083,287.754,291.465,286.814,286.915z"/>
				</g>
			</g>
		</g>
	</g>
</g>
<g id="Designed_by_Freepik">
	<g id="XMLID_1_">
		<g id="XMLID_319_">
			<g id="XMLID_338_">
				<path id="XMLID_346_" style="fill:#A5B7C6;" d="M260.104,469.612c-0.433,0.443-0.804,0.931-1.108,1.453l-0.466-0.241
					c-0.066-0.298-0.349-0.502-0.658-0.466c-0.331,0.039-0.568,0.339-0.529,0.67c0.039,0.331,0.339,0.567,0.67,0.528
					c0.065-0.008,0.127-0.025,0.184-0.052l0.451,0.234c-0.251,0.554-0.433,1.139-0.539,1.743l0.746,0.132
					c0.23-1.306,0.85-2.507,1.792-3.473L260.104,469.612z"/>
				<path id="XMLID_345_" style="fill:#A5B7C6;" d="M265.592,467.31c-0.171,0-0.341,0.006-0.51,0.017l-0.073-0.626
					c0.188-0.149,0.296-0.389,0.266-0.645c-0.046-0.393-0.402-0.674-0.795-0.628c-0.394,0.046-0.675,0.402-0.629,0.795
					c0.03,0.255,0.189,0.462,0.405,0.564l0.073,0.625c-0.714,0.116-1.403,0.332-2.06,0.645l0.327,0.685
					c0.934-0.447,1.941-0.674,2.995-0.674c0.496,0,0.993,0.053,1.475,0.157l0.161-0.74
					C266.692,467.369,266.143,467.31,265.592,467.31z"/>
				<path id="XMLID_344_" style="fill:#A5B7C6;" d="M272.194,469.857c0.331-0.04,0.566-0.342,0.525-0.672
					c-0.04-0.331-0.342-0.566-0.672-0.525c-0.31,0.037-0.535,0.304-0.53,0.608l-0.416,0.363c-0.418-0.431-0.89-0.813-1.408-1.14
					l-0.403,0.642c1.134,0.715,2.02,1.726,2.563,2.925l0.69-0.313c-0.251-0.554-0.567-1.071-0.942-1.545l0.402-0.351
					C272.064,469.862,272.129,469.865,272.194,469.857z"/>
				<path id="XMLID_343_" style="fill:#A5B7C6;" d="M265.044,477.519c-0.386,0.023-0.774,0.035-1.157,0.035
					c-0.88,0-1.732-0.061-2.478-0.18c-0.391-0.061-0.847-0.154-1.27-0.292c1.046,1.861,3.069,3.125,5.389,3.125
					c2.855,0,5.262-1.916,5.949-4.504c-0.682,0.45-1.506,0.826-2.459,1.123C267.839,477.194,266.464,477.434,265.044,477.519z"/>
				<path id="XMLID_339_" style="fill:#A5B7C6;" d="M265.592,468.826c-3.353,0-6.079,2.667-6.079,5.943
					c0,0.426,0.046,0.85,0.137,1.262c0.674,0.482,2.706,0.89,5.348,0.731c2.879-0.174,5.297-0.958,6.672-2.159
					c-0.005-0.194-0.021-0.39-0.045-0.581C271.244,471.06,268.65,468.826,265.592,468.826z M263.433,475.342
					c-1.021,0-1.85-0.83-1.85-1.851c0-1.02,0.829-1.85,1.85-1.85c1.02,0,1.85,0.83,1.85,1.85
					C265.282,474.512,264.452,475.342,263.433,475.342z M268.17,474.434c-0.75,0-1.36-0.61-1.36-1.36c0-0.751,0.61-1.36,1.36-1.36
					s1.36,0.609,1.36,1.36C269.53,473.823,268.92,474.434,268.17,474.434z"/>
			</g>
			<path id="XMLID_336_" style="fill:#A5B7C6;" d="M281.596,470.693c-0.295-0.115-0.806-0.309-1.383-0.237
				c-0.551,0.069-0.844,0.341-0.844,1.007v0.866h2.228v1.717h-2.228v5.455h-1.932v-5.455h-1.34v-1.717h1.34v-0.889
				c0-1.68,0.896-2.782,2.568-2.782c0.642,0,1.157,0.121,1.59,0.308V470.693z"/>
			<path id="XMLID_334_" style="fill:#A5B7C6;" d="M286.298,474.025c-0.177-0.029-0.357-0.046-0.526-0.046
				c-0.895,0-1.51,0.548-1.51,1.613v3.908h-1.932v-7.172h1.873v0.784c0.451-0.673,1.14-0.977,2.021-0.977
				c0.414,0,0.848,0.127,1.094,0.337L286.298,474.025z"/>
			<path id="XMLID_331_" style="fill:#A5B7C6;" d="M293.965,475.904c0,0.222-0.015,0.488-0.037,0.65h-5.084
				c0.207,1.037,0.933,1.488,1.843,1.488c0.621,0,1.295-0.252,1.814-0.689l1.132,1.243c-0.813,0.748-1.85,1.088-3.057,1.088
				c-2.198,0-3.723-1.495-3.723-3.752c0-2.258,1.481-3.797,3.627-3.797C292.544,472.137,293.958,473.669,293.965,475.904z
				 M288.851,475.237h3.175c-0.177-0.917-0.732-1.436-1.561-1.436C289.554,473.802,289.021,474.35,288.851,475.237z"/>
			<path id="XMLID_328_" style="fill:#A5B7C6;" d="M301.618,475.904c0,0.222-0.015,0.488-0.037,0.65h-5.084
				c0.207,1.037,0.933,1.488,1.843,1.488c0.621,0,1.295-0.252,1.814-0.689l1.132,1.243c-0.814,0.748-1.851,1.088-3.057,1.088
				c-2.198,0-3.723-1.495-3.723-3.752c0-2.258,1.48-3.797,3.626-3.797C300.197,472.137,301.611,473.669,301.618,475.904z
				 M296.504,475.237h3.176c-0.178-0.917-0.733-1.436-1.563-1.436C297.207,473.802,296.674,474.35,296.504,475.237z"/>
			<path id="XMLID_325_" style="fill:#A5B7C6;" d="M309.964,475.911c0,2.154-1.495,3.774-3.471,3.774
				c-0.963,0-1.644-0.377-2.109-0.933v3.709h-1.925v-10.133h1.888v0.792c0.466-0.585,1.154-0.984,2.139-0.984
				C308.469,472.137,309.964,473.758,309.964,475.911z M304.287,475.911c0,1.133,0.748,1.977,1.843,1.977
				c1.14,0,1.851-0.881,1.851-1.977s-0.711-1.976-1.851-1.976C305.035,473.935,304.287,474.779,304.287,475.911z"/>
			<path id="XMLID_322_" style="fill:#A5B7C6;" d="M313.067,469.982c0,0.696-0.54,1.229-1.235,1.229c-0.696,0-1.23-0.532-1.23-1.229
				c0-0.695,0.533-1.243,1.23-1.243C312.527,468.739,313.067,469.287,313.067,469.982z M312.809,479.501h-1.932v-7.172h1.932
				V479.501z"/>
			<path id="XMLID_320_" style="fill:#A5B7C6;" d="M316.032,474.883l2.701-2.554h2.369l-3.479,3.375l3.501,3.797h-2.376
				l-2.716-2.901v2.901h-1.932v-10.658h1.932V474.883z"/>
		</g>
		<g id="XMLID_2_">
			<path id="XMLID_3_" style="fill:#A5B7C6;" d="M184.413,479.435v-1.055c-0.527,0.718-1.392,1.23-2.388,1.23
				c-1.846,0-3.149-1.406-3.149-3.705c0-2.256,1.289-3.721,3.149-3.721c0.952,0,1.816,0.469,2.388,1.245v-3.765h1.099v9.77H184.413z
				 M184.413,477.518v-3.208c-0.396-0.615-1.245-1.143-2.124-1.143c-1.421,0-2.27,1.172-2.27,2.739c0,1.567,0.85,2.724,2.27,2.724
				C183.167,478.63,184.017,478.133,184.413,477.518z"/>
			<path id="XMLID_6_" style="fill:#A5B7C6;" d="M186.932,475.892c0-2.051,1.465-3.706,3.486-3.706c2.139,0,3.398,1.67,3.398,3.793
				v0.279h-5.727c0.088,1.333,1.025,2.445,2.549,2.445c0.806,0,1.626-0.322,2.183-0.893l0.527,0.718
				c-0.703,0.703-1.655,1.083-2.813,1.083C188.44,479.611,186.932,478.103,186.932,475.892z M190.403,473.094
				c-1.509,0-2.256,1.274-2.314,2.357h4.643C192.718,474.397,192.015,473.094,190.403,473.094z"/>
			<path id="XMLID_9_" style="fill:#A5B7C6;" d="M194.607,478.498l0.571-0.79c0.469,0.542,1.362,1.011,2.329,1.011
				c1.084,0,1.67-0.514,1.67-1.217c0-1.713-4.38-0.658-4.38-3.281c0-1.098,0.952-2.035,2.637-2.035c1.201,0,2.051,0.454,2.622,1.025
				l-0.513,0.762c-0.424-0.513-1.201-0.894-2.109-0.894c-0.967,0-1.567,0.483-1.567,1.113c0,1.552,4.379,0.527,4.379,3.281
				c0,1.187-0.952,2.138-2.783,2.138C196.306,479.611,195.325,479.26,194.607,478.498z"/>
			<path id="XMLID_11_" style="fill:#A5B7C6;" d="M201.477,470.618c0-0.41,0.337-0.747,0.732-0.747c0.41,0,0.747,0.337,0.747,0.747
				c0,0.41-0.337,0.732-0.747,0.732C201.814,471.351,201.477,471.028,201.477,470.618z M201.667,479.435v-7.074h1.099v7.074H201.667
				z"/>
			<path id="XMLID_14_" style="fill:#A5B7C6;" d="M204.582,481.252l0.557-0.82c0.586,0.703,1.289,0.967,2.3,0.967
				c1.172,0,2.27-0.57,2.27-2.123v-1.012c-0.512,0.718-1.376,1.26-2.373,1.26c-1.845,0-3.149-1.377-3.149-3.662
				c0-2.27,1.289-3.676,3.149-3.676c0.952,0,1.802,0.469,2.373,1.245v-1.069h1.099v6.87c0,2.343-1.641,3.075-3.369,3.075
				C206.237,482.307,205.417,482.072,204.582,481.252z M209.708,477.4v-3.091c-0.381-0.615-1.23-1.143-2.109-1.143
				c-1.421,0-2.271,1.128-2.271,2.694c0,1.554,0.849,2.695,2.271,2.695C208.478,478.557,209.328,478.016,209.708,477.4z"/>
			<path id="XMLID_17_" style="fill:#A5B7C6;" d="M217.413,479.435v-4.629c0-1.244-0.629-1.64-1.582-1.64
				c-0.865,0-1.685,0.527-2.095,1.099v5.17h-1.099v-7.074h1.099v1.025c0.498-0.586,1.464-1.201,2.519-1.201
				c1.48,0,2.256,0.747,2.256,2.285v4.965H217.413z"/>
			<path id="XMLID_19_" style="fill:#A5B7C6;" d="M219.933,475.892c0-2.051,1.465-3.706,3.486-3.706c2.138,0,3.399,1.67,3.399,3.793
				v0.279h-5.728c0.088,1.333,1.025,2.445,2.549,2.445c0.806,0,1.626-0.322,2.183-0.893l0.527,0.718
				c-0.703,0.703-1.655,1.083-2.813,1.083C221.441,479.611,219.933,478.103,219.933,475.892z M223.404,473.094
				c-1.509,0-2.256,1.274-2.314,2.357h4.643C225.718,474.397,225.015,473.094,223.404,473.094z"/>
			<path id="XMLID_22_" style="fill:#A5B7C6;" d="M233.35,479.435v-1.055c-0.527,0.718-1.392,1.23-2.388,1.23
				c-1.845,0-3.149-1.406-3.149-3.705c0-2.256,1.289-3.721,3.149-3.721c0.952,0,1.817,0.469,2.388,1.245v-3.765h1.098v9.77H233.35z
				 M233.35,477.518v-3.208c-0.396-0.615-1.245-1.143-2.124-1.143c-1.421,0-2.27,1.172-2.27,2.739c0,1.567,0.85,2.724,2.27,2.724
				C232.105,478.63,232.954,478.133,233.35,477.518z"/>
			<path id="XMLID_25_" style="fill:#A5B7C6;" d="M239.692,479.435v-9.77h1.099v3.765c0.572-0.776,1.421-1.245,2.388-1.245
				c1.846,0,3.149,1.465,3.149,3.721c0,2.299-1.304,3.705-3.149,3.705c-0.996,0-1.86-0.513-2.388-1.23v1.055H239.692z M242.9,478.63
				c1.436,0,2.286-1.156,2.286-2.724c0-1.567-0.85-2.739-2.286-2.739c-0.864,0-1.729,0.527-2.109,1.143v3.208
				C241.171,478.133,242.036,478.63,242.9,478.63z"/>
			<path id="XMLID_28_" style="fill:#A5B7C6;" d="M247.528,481.208c0.161,0.073,0.425,0.117,0.601,0.117
				c0.483,0,0.805-0.161,1.055-0.747l0.468-1.068l-2.959-7.148h1.187l2.358,5.8l2.344-5.8h1.201l-3.545,8.51
				c-0.425,1.025-1.143,1.422-2.08,1.436c-0.234,0-0.601-0.044-0.806-0.103L247.528,481.208z"/>
		</g>
	</g>
</g>
</svg>
